# xmcd CD database file
#
# Track frame offsets:
#	150
#	24584
#	37311
#	51641
#	79358
#	93418
#	111337
#	128330
#	144090
#	164592
#	183969
#	187320
#	238191
#
# Disc length: 3277 seconds
#
# Revision: 1
# Processed by: cddbd v1.4PL0 Copyright (c) Steve Scherf et al.
# Submitted via: CDex 1.50
#
DISCID=bd0ccb0d
DTITLE=Stevie Ray Vaughan and Double Trouble - Soul To Soul
DYEAR=1900
DGENRE=Blues
TTITLE0=01-Say What !
TTITLE1=02-Lookin' Out The Window
TTITLE2=03-Look a Little Sister
TTITLE3=04-Ain't Gone 'N' Give Up On Love
TTITLE4=05-Gone Home
TTITLE5=06-Change It
TTITLE6=07-You'll Be Mine
TTITLE7=08-Empty Arms
TTITLE8=09-Come On (part III)
TTITLE9=10-Life Without You
TTITLE10=11-SRV Speaks
TTITLE11=12-Little Wing, Thrid Stone From The Sun (live)
TTITLE12=31-Slip Slidn' Slim
EXTD=
EXTT0=
EXTT1=
EXTT2=
EXTT3=
EXTT4=
EXTT5=
EXTT6=
EXTT7=
EXTT8=
EXTT9=
EXTT10=
EXTT11=
EXTT12=
PLAYORDER=
